<svg width="410" height="2" viewBox="0 0 410 2" fill="none" xmlns="http://www.w3.org/2000/svg">
<path d="M411 1.99996C411.552 1.99996 412 1.55225 412 0.999964C412 0.447679 411.552 -3.5979e-05 411 -3.59308e-05L411 1.99996ZM8.74228e-08 2L2.01471 2L2.01471 -1.76131e-07L-8.74228e-08 0L8.74228e-08 2ZM6.04412 2L10.0735 2L10.0735 -8.80656e-07L6.04412 -5.28394e-07L6.04412 2ZM14.1029 2L18.1324 2L18.1324 -1.58518e-06L14.1029 -1.23292e-06L14.1029 2ZM22.1618 2L26.1912 2L26.1912 -2.28971e-06L22.1618 -1.93744e-06L22.1618 2ZM30.2206 2L34.25 2L34.25 -2.99423e-06L30.2206 -2.64197e-06L30.2206 2ZM38.2794 2L42.3088 2L42.3088 -3.69876e-06L38.2794 -3.34649e-06L38.2794 2ZM46.3382 2L50.3676 2L50.3676 -4.40328e-06L46.3382 -4.05102e-06L46.3382 2ZM54.3971 2L58.4265 1.99999L58.4265 -5.1078e-06L54.3971 -4.75554e-06L54.3971 2ZM62.4559 1.99999L66.4853 1.99999L66.4853 -5.81233e-06L62.4559 -5.46007e-06L62.4559 1.99999ZM70.5147 1.99999L74.5441 1.99999L74.5441 -6.51685e-06L70.5147 -6.16459e-06L70.5147 1.99999ZM78.5735 1.99999L82.6029 1.99999L82.6029 -7.22138e-06L78.5735 -6.86912e-06L78.5735 1.99999ZM86.6323 1.99999L90.6618 1.99999L90.6618 -7.9259e-06L86.6323 -7.57364e-06L86.6323 1.99999ZM94.6912 1.99999L98.7206 1.99999L98.7206 -8.63043e-06L94.6912 -8.27817e-06L94.6912 1.99999ZM102.75 1.99999L106.779 1.99999L106.779 -9.33495e-06L102.75 -8.98269e-06L102.75 1.99999ZM110.809 1.99999L114.838 1.99999L114.838 -1.00395e-05L110.809 -9.68721e-06L110.809 1.99999ZM118.868 1.99999L122.897 1.99999L122.897 -1.0744e-05L118.868 -1.03917e-05L118.868 1.99999ZM126.926 1.99999L130.956 1.99999L130.956 -1.14485e-05L126.926 -1.10963e-05L126.926 1.99999ZM134.985 1.99999L139.015 1.99999L139.015 -1.21531e-05L134.985 -1.18008e-05L134.985 1.99999ZM143.044 1.99999L147.074 1.99999L147.074 -1.28576e-05L143.044 -1.25053e-05L143.044 1.99999ZM151.103 1.99999L155.132 1.99999L155.132 -1.35621e-05L151.103 -1.32098e-05L151.103 1.99999ZM159.162 1.99999L163.191 1.99999L163.191 -1.42666e-05L159.162 -1.39144e-05L159.162 1.99999ZM167.221 1.99999L171.25 1.99999L171.25 -1.49712e-05L167.221 -1.46189e-05L167.221 1.99999ZM175.279 1.99998L179.309 1.99998L179.309 -1.56757e-05L175.279 -1.53234e-05L175.279 1.99998ZM183.338 1.99998L187.368 1.99998L187.368 -1.63802e-05L183.338 -1.60279e-05L183.338 1.99998ZM191.397 1.99998L195.427 1.99998L195.427 -1.70847e-05L191.397 -1.67325e-05L191.397 1.99998ZM199.456 1.99998L203.485 1.99998L203.485 -1.77893e-05L199.456 -1.7437e-05L199.456 1.99998ZM207.515 1.99998L211.544 1.99998L211.544 -1.84938e-05L207.515 -1.81415e-05L207.515 1.99998ZM215.574 1.99998L219.603 1.99998L219.603 -1.91983e-05L215.574 -1.88461e-05L215.574 1.99998ZM223.633 1.99998L227.662 1.99998L227.662 -1.99028e-05L223.633 -1.95506e-05L223.633 1.99998ZM231.691 1.99998L235.721 1.99998L235.721 -2.06074e-05L231.691 -2.02551e-05L231.691 1.99998ZM239.75 1.99998L243.78 1.99998L243.78 -2.13119e-05L239.75 -2.09596e-05L239.75 1.99998ZM247.809 1.99998L251.838 1.99998L251.838 -2.20164e-05L247.809 -2.16642e-05L247.809 1.99998ZM255.868 1.99998L259.897 1.99998L259.897 -2.27209e-05L255.868 -2.23687e-05L255.868 1.99998ZM263.927 1.99998L267.956 1.99998L267.956 -2.34255e-05L263.927 -2.30732e-05L263.927 1.99998ZM271.986 1.99998L276.015 1.99998L276.015 -2.413e-05L271.986 -2.37777e-05L271.986 1.99998ZM280.044 1.99998L284.074 1.99998L284.074 -2.48345e-05L280.044 -2.44823e-05L280.044 1.99998ZM288.103 1.99997L292.133 1.99997L292.133 -2.5539e-05L288.103 -2.51868e-05L288.103 1.99997ZM296.162 1.99997L300.191 1.99997L300.191 -2.62436e-05L296.162 -2.58913e-05L296.162 1.99997ZM304.221 1.99997L308.25 1.99997L308.25 -2.69481e-05L304.221 -2.65958e-05L304.221 1.99997ZM312.28 1.99997L316.309 1.99997L316.309 -2.76526e-05L312.28 -2.73004e-05L312.28 1.99997ZM320.339 1.99997L324.368 1.99997L324.368 -2.83572e-05L320.339 -2.80049e-05L320.339 1.99997ZM328.397 1.99997L332.427 1.99997L332.427 -2.90617e-05L328.397 -2.87094e-05L328.397 1.99997ZM336.456 1.99997L340.486 1.99997L340.486 -2.97662e-05L336.456 -2.94139e-05L336.456 1.99997ZM344.515 1.99997L348.544 1.99997L348.544 -3.04707e-05L344.515 -3.01185e-05L344.515 1.99997ZM352.574 1.99997L356.603 1.99997L356.603 -3.11753e-05L352.574 -3.0823e-05L352.574 1.99997ZM360.633 1.99997L364.662 1.99997L364.662 -3.18798e-05L360.633 -3.15275e-05L360.633 1.99997ZM368.692 1.99997L372.721 1.99997L372.721 -3.25843e-05L368.692 -3.2232e-05L368.692 1.99997ZM376.75 1.99997L380.78 1.99997L380.78 -3.32888e-05L376.75 -3.29366e-05L376.75 1.99997ZM384.809 1.99997L388.839 1.99997L388.839 -3.39934e-05L384.809 -3.36411e-05L384.809 1.99997ZM392.868 1.99997L396.898 1.99997L396.898 -3.46979e-05L392.868 -3.43456e-05L392.868 1.99997ZM400.927 1.99996L404.956 1.99996L404.956 -3.54024e-05L400.927 -3.50501e-05L400.927 1.99996ZM408.986 1.99996L411 1.99996L411 -3.59308e-05L408.986 -3.57547e-05L408.986 1.99996Z" fill="#1029B9"/>
</svg>
